<mxfile host="app.diagrams.net" agent="Mozilla/5.0 (Windows NT 10.0; Win64; x64) AppleWebKit/537.36 (KHTML, like Gecko) Chrome/131.0.0.0 Safari/537.36" version="25.0.3">
  <diagram name="Страница — 1" id="eocdVrdOuxZpC-aDz3zd">
    <mxGraphModel dx="2442" dy="1972" grid="1" gridSize="10" guides="1" tooltips="1" connect="1" arrows="1" fold="1" page="1" pageScale="1" pageWidth="827" pageHeight="1169" math="0" shadow="0">
      <root>
        <mxCell id="0" />
        <mxCell id="1" parent="0" />
        <mxCell id="8peqeRItGr1Bbq8-Sd6H-1" value="Parameters" style="swimlane;fontStyle=0;childLayout=stackLayout;horizontal=1;startSize=26;fillColor=none;horizontalStack=0;resizeParent=1;resizeParentMax=0;resizeLast=0;collapsible=1;marginBottom=0;whiteSpace=wrap;html=1;" parent="1" vertex="1">
          <mxGeometry x="841" y="-60" width="400" height="170" as="geometry" />
        </mxCell>
        <mxCell id="8peqeRItGr1Bbq8-Sd6H-2" value="- _parameters: Dictionary&amp;lt;ParmaType, int&amp;gt;&lt;div&gt;&lt;br&gt;&lt;/div&gt;" style="text;strokeColor=none;fillColor=none;align=left;verticalAlign=top;spacingLeft=4;spacingRight=4;overflow=hidden;rotatable=0;points=[[0,0.5],[1,0.5]];portConstraint=eastwest;whiteSpace=wrap;html=1;" parent="8peqeRItGr1Bbq8-Sd6H-1" vertex="1">
          <mxGeometry y="26" width="400" height="34" as="geometry" />
        </mxCell>
        <mxCell id="8peqeRItGr1Bbq8-Sd6H-29" value="+SetParameters(Dictionary&amp;lt;ParamType, int&amp;gt;):&amp;nbsp;List&amp;lt;IncorrectParameters&amp;gt;&amp;nbsp;&lt;div&gt;+GetParameters():&amp;nbsp;Dictionary&amp;lt;ParamType, int&amp;gt;&lt;/div&gt;&lt;div&gt;+Validate(Dictionary&amp;lt;ParamType, int&amp;gt;):&amp;nbsp;List&amp;lt;IncorrectParameters&amp;gt;&lt;br&gt;&lt;br&gt;&lt;/div&gt;" style="html=1;whiteSpace=wrap;align=left;" parent="8peqeRItGr1Bbq8-Sd6H-1" vertex="1">
          <mxGeometry y="60" width="400" height="60" as="geometry" />
        </mxCell>
        <mxCell id="8peqeRItGr1Bbq8-Sd6H-30" value="&amp;lt;&amp;lt;property&amp;gt;&amp;gt;&lt;div&gt;+Params():&amp;nbsp;Dictionary&amp;lt;ParamType, int&amp;gt;&lt;/div&gt;" style="html=1;whiteSpace=wrap;align=left;" parent="8peqeRItGr1Bbq8-Sd6H-1" vertex="1">
          <mxGeometry y="120" width="400" height="50" as="geometry" />
        </mxCell>
        <mxCell id="8peqeRItGr1Bbq8-Sd6H-5" value="ParamType" style="swimlane;fontStyle=0;childLayout=stackLayout;horizontal=1;startSize=26;fillColor=none;horizontalStack=0;resizeParent=1;resizeParentMax=0;resizeLast=0;collapsible=1;marginBottom=0;whiteSpace=wrap;html=1;" parent="1" vertex="1">
          <mxGeometry x="150" y="-350" width="140" height="130" as="geometry" />
        </mxCell>
        <mxCell id="8peqeRItGr1Bbq8-Sd6H-6" value="&lt;div&gt;+TopWidth,&lt;/div&gt;&lt;div&gt;+TopDepth,&lt;/div&gt;&lt;div&gt;+TopHeight,&lt;/div&gt;&lt;div&gt;+LegWidth,&lt;/div&gt;&lt;div&gt;+LegDepth,&lt;/div&gt;&lt;div&gt;+TableHeight,&lt;/div&gt;" style="text;strokeColor=none;fillColor=none;align=left;verticalAlign=top;spacingLeft=4;spacingRight=4;overflow=hidden;rotatable=0;points=[[0,0.5],[1,0.5]];portConstraint=eastwest;whiteSpace=wrap;html=1;" parent="8peqeRItGr1Bbq8-Sd6H-5" vertex="1">
          <mxGeometry y="26" width="140" height="104" as="geometry" />
        </mxCell>
        <mxCell id="FSv4GVX_IqDxlKomD4Vc-4" style="edgeStyle=orthogonalEdgeStyle;rounded=0;orthogonalLoop=1;jettySize=auto;html=1;entryX=0.5;entryY=0;entryDx=0;entryDy=0;dashed=1;strokeWidth=2;endArrow=open;endFill=0;endSize=12;" parent="1" source="8peqeRItGr1Bbq8-Sd6H-7" target="pklQIT7AwHlRO6d9PA7P-1" edge="1">
          <mxGeometry relative="1" as="geometry" />
        </mxCell>
        <mxCell id="8peqeRItGr1Bbq8-Sd6H-7" value="MainForm" style="swimlane;fontStyle=0;childLayout=stackLayout;horizontal=1;startSize=26;fillColor=none;horizontalStack=0;resizeParent=1;resizeParentMax=0;resizeLast=0;collapsible=1;marginBottom=0;whiteSpace=wrap;html=1;" parent="1" vertex="1">
          <mxGeometry x="770" y="-400" width="340" height="140" as="geometry" />
        </mxCell>
        <mxCell id="8peqeRItGr1Bbq8-Sd6H-8" value="- _builder: Builder&lt;div&gt;&lt;br&gt;&lt;/div&gt;" style="text;strokeColor=none;fillColor=none;align=left;verticalAlign=top;spacingLeft=4;spacingRight=4;overflow=hidden;rotatable=0;points=[[0,0.5],[1,0.5]];portConstraint=eastwest;whiteSpace=wrap;html=1;" parent="8peqeRItGr1Bbq8-Sd6H-7" vertex="1">
          <mxGeometry y="26" width="340" height="34" as="geometry" />
        </mxCell>
        <mxCell id="8peqeRItGr1Bbq8-Sd6H-43" value="-buttonRun_Click(object, EventArgs): void&lt;div&gt;-TextBox_OnlyDigitKeyPress(object, KeyPressEventArgs): void&lt;/div&gt;&lt;div&gt;-PrintErrors(List&amp;lt;IncorrectParameters&amp;gt;): void&lt;/div&gt;&lt;div&gt;-BuildModel(Parameters)&lt;/div&gt;" style="html=1;whiteSpace=wrap;align=left;" parent="8peqeRItGr1Bbq8-Sd6H-7" vertex="1">
          <mxGeometry y="60" width="340" height="80" as="geometry" />
        </mxCell>
        <mxCell id="pklQIT7AwHlRO6d9PA7P-25" style="edgeStyle=orthogonalEdgeStyle;rounded=0;orthogonalLoop=1;jettySize=auto;html=1;entryX=0;entryY=0.5;entryDx=0;entryDy=0;strokeWidth=2;endArrow=none;endFill=0;endSize=12;startArrow=diamondThin;startFill=1;targetPerimeterSpacing=12;sourcePerimeterSpacing=0;startSize=12;" parent="1" source="8peqeRItGr1Bbq8-Sd6H-9" target="8peqeRItGr1Bbq8-Sd6H-1" edge="1">
          <mxGeometry relative="1" as="geometry" />
        </mxCell>
        <mxCell id="w2sVenuoAS3nU-lj2Czt-8" style="edgeStyle=orthogonalEdgeStyle;rounded=0;orthogonalLoop=1;jettySize=auto;html=1;entryX=0;entryY=0.5;entryDx=0;entryDy=0;strokeWidth=2;dashed=1;endSize=10;endArrow=open;endFill=0;" edge="1" parent="1" source="8peqeRItGr1Bbq8-Sd6H-9" target="w2sVenuoAS3nU-lj2Czt-2">
          <mxGeometry relative="1" as="geometry">
            <Array as="points">
              <mxPoint x="700" y="-187" />
            </Array>
          </mxGeometry>
        </mxCell>
        <mxCell id="8peqeRItGr1Bbq8-Sd6H-9" value="Builder" style="swimlane;fontStyle=0;childLayout=stackLayout;horizontal=1;startSize=26;fillColor=none;horizontalStack=0;resizeParent=1;resizeParentMax=0;resizeLast=0;collapsible=1;marginBottom=0;whiteSpace=wrap;html=1;" parent="1" vertex="1">
          <mxGeometry x="540" y="-40" width="180" height="130" as="geometry" />
        </mxCell>
        <mxCell id="8peqeRItGr1Bbq8-Sd6H-10" value="-_wrapper: IWrapper&lt;div&gt;-_parameters:&amp;nbsp;Parameters&lt;/div&gt;" style="text;strokeColor=none;fillColor=none;align=left;verticalAlign=top;spacingLeft=4;spacingRight=4;overflow=hidden;rotatable=0;points=[[0,0.5],[1,0.5]];portConstraint=eastwest;whiteSpace=wrap;html=1;" parent="8peqeRItGr1Bbq8-Sd6H-9" vertex="1">
          <mxGeometry y="26" width="180" height="54" as="geometry" />
        </mxCell>
        <mxCell id="8peqeRItGr1Bbq8-Sd6H-32" value="+Builder(Parameters, Cad)&lt;div&gt;+Build(): void&lt;/div&gt;" style="html=1;whiteSpace=wrap;align=left;" parent="8peqeRItGr1Bbq8-Sd6H-9" vertex="1">
          <mxGeometry y="80" width="180" height="50" as="geometry" />
        </mxCell>
        <mxCell id="8peqeRItGr1Bbq8-Sd6H-11" value="Cad" style="swimlane;fontStyle=0;childLayout=stackLayout;horizontal=1;startSize=26;fillColor=none;horizontalStack=0;resizeParent=1;resizeParentMax=0;resizeLast=0;collapsible=1;marginBottom=0;whiteSpace=wrap;html=1;" parent="1" vertex="1">
          <mxGeometry x="150" y="-190" width="140" height="70" as="geometry" />
        </mxCell>
        <mxCell id="8peqeRItGr1Bbq8-Sd6H-12" value="&lt;div&gt;+Kompas,&lt;/div&gt;&lt;div&gt;+AutoCad,&lt;/div&gt;" style="text;strokeColor=none;fillColor=none;align=left;verticalAlign=top;spacingLeft=4;spacingRight=4;overflow=hidden;rotatable=0;points=[[0,0.5],[1,0.5]];portConstraint=eastwest;whiteSpace=wrap;html=1;" parent="8peqeRItGr1Bbq8-Sd6H-11" vertex="1">
          <mxGeometry y="26" width="140" height="44" as="geometry" />
        </mxCell>
        <mxCell id="8peqeRItGr1Bbq8-Sd6H-50" style="edgeStyle=orthogonalEdgeStyle;rounded=0;orthogonalLoop=1;jettySize=auto;html=1;entryX=0.5;entryY=1;entryDx=0;entryDy=0;dashed=1;strokeWidth=2;endArrow=open;endFill=0;endSize=12;" parent="1" source="8peqeRItGr1Bbq8-Sd6H-13" target="8peqeRItGr1Bbq8-Sd6H-11" edge="1">
          <mxGeometry relative="1" as="geometry">
            <Array as="points">
              <mxPoint x="290" y="5" />
              <mxPoint x="220" y="5" />
            </Array>
          </mxGeometry>
        </mxCell>
        <mxCell id="8peqeRItGr1Bbq8-Sd6H-13" value="WrapperFactory" style="swimlane;fontStyle=0;childLayout=stackLayout;horizontal=1;startSize=26;fillColor=none;horizontalStack=0;resizeParent=1;resizeParentMax=0;resizeLast=0;collapsible=1;marginBottom=0;whiteSpace=wrap;html=1;" parent="1" vertex="1">
          <mxGeometry x="220" y="130" width="200" height="70" as="geometry" />
        </mxCell>
        <mxCell id="8peqeRItGr1Bbq8-Sd6H-14" value="+&amp;nbsp;MakeWrapper(Cad): IWrapper" style="text;strokeColor=none;fillColor=none;align=left;verticalAlign=top;spacingLeft=4;spacingRight=4;overflow=hidden;rotatable=0;points=[[0,0.5],[1,0.5]];portConstraint=eastwest;whiteSpace=wrap;html=1;" parent="8peqeRItGr1Bbq8-Sd6H-13" vertex="1">
          <mxGeometry y="26" width="200" height="44" as="geometry" />
        </mxCell>
        <mxCell id="8peqeRItGr1Bbq8-Sd6H-15" value="&lt;div&gt;&amp;lt;&amp;lt;interface&amp;gt;&amp;gt;&lt;/div&gt;IWrapper" style="swimlane;fontStyle=0;childLayout=stackLayout;horizontal=1;startSize=40;fillColor=none;horizontalStack=0;resizeParent=1;resizeParentMax=0;resizeLast=0;collapsible=1;marginBottom=0;whiteSpace=wrap;html=1;" parent="1" vertex="1">
          <mxGeometry x="180" y="383" width="300" height="124" as="geometry" />
        </mxCell>
        <mxCell id="8peqeRItGr1Bbq8-Sd6H-16" value="+ OpenCad(): void&lt;div&gt;+ CreatePart(): void&lt;/div&gt;&lt;div&gt;+ NewRectangle(double, double, int, int, string): void&lt;/div&gt;&lt;div&gt;+ Extrude(int, string, bool): void&lt;/div&gt;&lt;div&gt;+ IsCadRunning(): bool&lt;/div&gt;" style="text;strokeColor=none;fillColor=none;align=left;verticalAlign=top;spacingLeft=4;spacingRight=4;overflow=hidden;rotatable=0;points=[[0,0.5],[1,0.5]];portConstraint=eastwest;whiteSpace=wrap;html=1;" parent="8peqeRItGr1Bbq8-Sd6H-15" vertex="1">
          <mxGeometry y="40" width="300" height="84" as="geometry" />
        </mxCell>
        <mxCell id="8peqeRItGr1Bbq8-Sd6H-17" value="WrapperCreatePartException" style="swimlane;fontStyle=0;childLayout=stackLayout;horizontal=1;startSize=26;fillColor=none;horizontalStack=0;resizeParent=1;resizeParentMax=0;resizeLast=0;collapsible=1;marginBottom=0;whiteSpace=wrap;html=1;" parent="1" vertex="1">
          <mxGeometry x="-480" y="790" width="320" height="60" as="geometry" />
        </mxCell>
        <mxCell id="8peqeRItGr1Bbq8-Sd6H-18" value="+WrapperCreatePartException(string) : base(string)" style="text;strokeColor=none;fillColor=none;align=left;verticalAlign=top;spacingLeft=4;spacingRight=4;overflow=hidden;rotatable=0;points=[[0,0.5],[1,0.5]];portConstraint=eastwest;whiteSpace=wrap;html=1;" parent="8peqeRItGr1Bbq8-Sd6H-17" vertex="1">
          <mxGeometry y="26" width="320" height="34" as="geometry" />
        </mxCell>
        <mxCell id="8peqeRItGr1Bbq8-Sd6H-19" value="WrapperExtrudeException" style="swimlane;fontStyle=0;childLayout=stackLayout;horizontal=1;startSize=26;fillColor=none;horizontalStack=0;resizeParent=1;resizeParentMax=0;resizeLast=0;collapsible=1;marginBottom=0;whiteSpace=wrap;html=1;" parent="1" vertex="1">
          <mxGeometry x="-70" y="790" width="330" height="60" as="geometry" />
        </mxCell>
        <mxCell id="8peqeRItGr1Bbq8-Sd6H-20" value="+WrapperExtrudeException(string message) : base(string)" style="text;strokeColor=none;fillColor=none;align=left;verticalAlign=top;spacingLeft=4;spacingRight=4;overflow=hidden;rotatable=0;points=[[0,0.5],[1,0.5]];portConstraint=eastwest;whiteSpace=wrap;html=1;" parent="8peqeRItGr1Bbq8-Sd6H-19" vertex="1">
          <mxGeometry y="26" width="330" height="34" as="geometry" />
        </mxCell>
        <mxCell id="8peqeRItGr1Bbq8-Sd6H-25" value="KompasWrapper" style="swimlane;fontStyle=0;childLayout=stackLayout;horizontal=1;startSize=26;fillColor=none;horizontalStack=0;resizeParent=1;resizeParentMax=0;resizeLast=0;collapsible=1;marginBottom=0;whiteSpace=wrap;html=1;" parent="1" vertex="1">
          <mxGeometry x="710" y="370" width="290" height="190" as="geometry" />
        </mxCell>
        <mxCell id="8peqeRItGr1Bbq8-Sd6H-26" value="-&amp;nbsp;&lt;u&gt;_kompas7:&amp;nbsp;IKompasAPIObject&lt;/u&gt;&lt;div&gt;-&lt;span style=&quot;background-color: initial;&quot;&gt;&lt;u&gt;_part: IPart7&lt;/u&gt;&lt;/span&gt;&lt;/div&gt;&lt;div&gt;&lt;span style=&quot;background-color: initial;&quot;&gt;-&lt;u&gt;&amp;nbsp;&lt;/u&gt;&lt;/span&gt;&lt;span style=&quot;background-color: initial;&quot;&gt;&lt;u&gt;_modelContainer: IModelContainer&lt;/u&gt;&lt;/span&gt;&lt;/div&gt;&lt;div&gt;&lt;span style=&quot;background-color: initial;&quot;&gt;-&lt;u&gt;&amp;nbsp;&lt;/u&gt;&lt;/span&gt;&lt;span style=&quot;background-color: initial;&quot;&gt;&lt;u&gt;_theLastCreatedSketch: ISketch&lt;/u&gt;&lt;/span&gt;&lt;/div&gt;" style="text;strokeColor=none;fillColor=none;align=left;verticalAlign=top;spacingLeft=4;spacingRight=4;overflow=hidden;rotatable=0;points=[[0,0.5],[1,0.5]];portConstraint=eastwest;whiteSpace=wrap;html=1;" parent="8peqeRItGr1Bbq8-Sd6H-25" vertex="1">
          <mxGeometry y="26" width="290" height="84" as="geometry" />
        </mxCell>
        <mxCell id="8peqeRItGr1Bbq8-Sd6H-33" value="+&amp;nbsp;NewRectangle(double, double, int, int, string): void&lt;div&gt;+&amp;nbsp;Extrude(int, string, bool): void&lt;/div&gt;&lt;div&gt;+ OpenCad(): void&lt;/div&gt;&lt;div&gt;+ CreatePart(): void&lt;/div&gt;&lt;div&gt;+ IsCadRunning(): bool&lt;/div&gt;" style="html=1;whiteSpace=wrap;align=left;" parent="8peqeRItGr1Bbq8-Sd6H-25" vertex="1">
          <mxGeometry y="110" width="290" height="80" as="geometry" />
        </mxCell>
        <mxCell id="8peqeRItGr1Bbq8-Sd6H-36" value="InventorWrapper" style="swimlane;fontStyle=0;childLayout=stackLayout;horizontal=1;startSize=26;fillColor=none;horizontalStack=0;resizeParent=1;resizeParentMax=0;resizeLast=0;collapsible=1;marginBottom=0;whiteSpace=wrap;html=1;" parent="1" vertex="1">
          <mxGeometry x="-290" y="350" width="290" height="190" as="geometry" />
        </mxCell>
        <mxCell id="8peqeRItGr1Bbq8-Sd6H-37" value="-&amp;nbsp;&lt;u&gt;_inventorApp:&amp;nbsp;Application&lt;/u&gt;&lt;div&gt;-&lt;span style=&quot;background-color: initial;&quot;&gt;&lt;u&gt;_partDocument:&amp;nbsp;&lt;/u&gt;&lt;/span&gt;&lt;span style=&quot;background-color: initial;&quot;&gt;&lt;u&gt;PartDocument&lt;/u&gt;&lt;/span&gt;&lt;/div&gt;&lt;div&gt;&lt;span style=&quot;background-color: initial;&quot;&gt;-&lt;u&gt;&amp;nbsp;&lt;/u&gt;&lt;/span&gt;&lt;span style=&quot;background-color: initial;&quot;&gt;&lt;u&gt;_sketch:&amp;nbsp;&lt;/u&gt;&lt;/span&gt;&lt;span style=&quot;background-color: initial;&quot;&gt;&lt;u&gt;PlanarSketch&lt;/u&gt;&lt;/span&gt;&lt;/div&gt;&lt;div&gt;&lt;span style=&quot;background-color: initial;&quot;&gt;-&lt;u&gt;&amp;nbsp;&lt;/u&gt;&lt;/span&gt;&lt;span style=&quot;background-color: initial;&quot;&gt;&lt;u&gt;_partCompDef:&amp;nbsp;&lt;/u&gt;&lt;/span&gt;&lt;span style=&quot;background-color: initial;&quot;&gt;&lt;u&gt;PartComponentDefinition&lt;/u&gt;&lt;/span&gt;&lt;/div&gt;" style="text;strokeColor=none;fillColor=none;align=left;verticalAlign=top;spacingLeft=4;spacingRight=4;overflow=hidden;rotatable=0;points=[[0,0.5],[1,0.5]];portConstraint=eastwest;whiteSpace=wrap;html=1;" parent="8peqeRItGr1Bbq8-Sd6H-36" vertex="1">
          <mxGeometry y="26" width="290" height="84" as="geometry" />
        </mxCell>
        <mxCell id="8peqeRItGr1Bbq8-Sd6H-38" value="+&amp;nbsp;NewRectangle(double, double, int, int, string): void&lt;div&gt;+&amp;nbsp;Extrude(int, string, bool): void&lt;/div&gt;&lt;div&gt;+ OpenCad(): void&lt;/div&gt;&lt;div&gt;+ CreatePart(): void&lt;br&gt;+ IsCadRunning(): bool&lt;/div&gt;" style="html=1;whiteSpace=wrap;align=left;" parent="8peqeRItGr1Bbq8-Sd6H-36" vertex="1">
          <mxGeometry y="110" width="290" height="80" as="geometry" />
        </mxCell>
        <mxCell id="8peqeRItGr1Bbq8-Sd6H-39" value="WrapperNewRectangleException" style="swimlane;fontStyle=0;childLayout=stackLayout;horizontal=1;startSize=26;fillColor=none;horizontalStack=0;resizeParent=1;resizeParentMax=0;resizeLast=0;collapsible=1;marginBottom=0;whiteSpace=wrap;html=1;" parent="1" vertex="1">
          <mxGeometry x="320" y="790" width="370" height="60" as="geometry" />
        </mxCell>
        <mxCell id="8peqeRItGr1Bbq8-Sd6H-40" value="+WrapperNewRectangleException(string message) : base(string)" style="text;strokeColor=none;fillColor=none;align=left;verticalAlign=top;spacingLeft=4;spacingRight=4;overflow=hidden;rotatable=0;points=[[0,0.5],[1,0.5]];portConstraint=eastwest;whiteSpace=wrap;html=1;" parent="8peqeRItGr1Bbq8-Sd6H-39" vertex="1">
          <mxGeometry y="26" width="370" height="34" as="geometry" />
        </mxCell>
        <mxCell id="8peqeRItGr1Bbq8-Sd6H-41" value="WrapperOpenCadException" style="swimlane;fontStyle=0;childLayout=stackLayout;horizontal=1;startSize=26;fillColor=none;horizontalStack=0;resizeParent=1;resizeParentMax=0;resizeLast=0;collapsible=1;marginBottom=0;whiteSpace=wrap;html=1;" parent="1" vertex="1">
          <mxGeometry x="730" y="790" width="370" height="60" as="geometry" />
        </mxCell>
        <mxCell id="8peqeRItGr1Bbq8-Sd6H-42" value="+WrapperOpenCadException(string message) : base(string)" style="text;strokeColor=none;fillColor=none;align=left;verticalAlign=top;spacingLeft=4;spacingRight=4;overflow=hidden;rotatable=0;points=[[0,0.5],[1,0.5]];portConstraint=eastwest;whiteSpace=wrap;html=1;" parent="8peqeRItGr1Bbq8-Sd6H-41" vertex="1">
          <mxGeometry y="26" width="370" height="34" as="geometry" />
        </mxCell>
        <mxCell id="8peqeRItGr1Bbq8-Sd6H-46" style="edgeStyle=orthogonalEdgeStyle;rounded=0;orthogonalLoop=1;jettySize=auto;html=1;entryX=0.5;entryY=0;entryDx=0;entryDy=0;strokeWidth=2;endArrow=open;endFill=0;endSize=12;dashed=1;" parent="1" source="8peqeRItGr1Bbq8-Sd6H-14" target="8peqeRItGr1Bbq8-Sd6H-36" edge="1">
          <mxGeometry relative="1" as="geometry" />
        </mxCell>
        <mxCell id="8peqeRItGr1Bbq8-Sd6H-47" style="edgeStyle=orthogonalEdgeStyle;rounded=0;orthogonalLoop=1;jettySize=auto;html=1;entryX=0.5;entryY=0;entryDx=0;entryDy=0;dashed=1;strokeWidth=2;endArrow=open;endFill=0;endSize=12;" parent="1" source="8peqeRItGr1Bbq8-Sd6H-14" target="8peqeRItGr1Bbq8-Sd6H-25" edge="1">
          <mxGeometry relative="1" as="geometry" />
        </mxCell>
        <mxCell id="8peqeRItGr1Bbq8-Sd6H-48" style="edgeStyle=orthogonalEdgeStyle;rounded=0;orthogonalLoop=1;jettySize=auto;html=1;entryX=0.5;entryY=0;entryDx=0;entryDy=0;dashed=1;strokeWidth=2;endArrow=open;endFill=0;endSize=12;" parent="1" source="8peqeRItGr1Bbq8-Sd6H-10" target="8peqeRItGr1Bbq8-Sd6H-13" edge="1">
          <mxGeometry relative="1" as="geometry" />
        </mxCell>
        <mxCell id="8peqeRItGr1Bbq8-Sd6H-49" style="edgeStyle=orthogonalEdgeStyle;rounded=0;orthogonalLoop=1;jettySize=auto;html=1;entryX=0.75;entryY=1;entryDx=0;entryDy=0;endArrow=diamondThin;endFill=0;strokeWidth=2;endSize=12;" parent="1" target="8peqeRItGr1Bbq8-Sd6H-9" edge="1">
          <mxGeometry relative="1" as="geometry">
            <mxPoint x="480" y="410" as="sourcePoint" />
            <Array as="points">
              <mxPoint x="480" y="410" />
              <mxPoint x="675" y="410" />
            </Array>
          </mxGeometry>
        </mxCell>
        <mxCell id="8peqeRItGr1Bbq8-Sd6H-51" style="edgeStyle=orthogonalEdgeStyle;rounded=0;orthogonalLoop=1;jettySize=auto;html=1;entryX=1.009;entryY=0.256;entryDx=0;entryDy=0;entryPerimeter=0;strokeWidth=2;dashed=1;endArrow=open;endFill=0;endSize=12;" parent="1" source="8peqeRItGr1Bbq8-Sd6H-9" target="8peqeRItGr1Bbq8-Sd6H-12" edge="1">
          <mxGeometry relative="1" as="geometry" />
        </mxCell>
        <mxCell id="8peqeRItGr1Bbq8-Sd6H-55" style="edgeStyle=orthogonalEdgeStyle;rounded=0;orthogonalLoop=1;jettySize=auto;html=1;entryX=1.017;entryY=0.768;entryDx=0;entryDy=0;entryPerimeter=0;dashed=1;strokeWidth=2;endArrow=open;endFill=0;endSize=12;" parent="1" source="8peqeRItGr1Bbq8-Sd6H-9" target="8peqeRItGr1Bbq8-Sd6H-6" edge="1">
          <mxGeometry relative="1" as="geometry">
            <Array as="points">
              <mxPoint x="670" y="-244" />
            </Array>
          </mxGeometry>
        </mxCell>
        <mxCell id="8peqeRItGr1Bbq8-Sd6H-57" style="edgeStyle=orthogonalEdgeStyle;rounded=0;orthogonalLoop=1;jettySize=auto;html=1;entryX=0.25;entryY=0;entryDx=0;entryDy=0;dashed=1;endArrow=open;endFill=0;strokeWidth=2;endSize=12;" parent="1" source="8peqeRItGr1Bbq8-Sd6H-43" target="8peqeRItGr1Bbq8-Sd6H-1" edge="1">
          <mxGeometry relative="1" as="geometry" />
        </mxCell>
        <mxCell id="8peqeRItGr1Bbq8-Sd6H-66" style="edgeStyle=orthogonalEdgeStyle;rounded=0;orthogonalLoop=1;jettySize=auto;html=1;entryX=-0.003;entryY=0.255;entryDx=0;entryDy=0;entryPerimeter=0;dashed=1;strokeWidth=2;endArrow=block;endFill=0;endSize=12;" parent="1" source="8peqeRItGr1Bbq8-Sd6H-36" target="8peqeRItGr1Bbq8-Sd6H-16" edge="1">
          <mxGeometry relative="1" as="geometry" />
        </mxCell>
        <mxCell id="8peqeRItGr1Bbq8-Sd6H-68" style="edgeStyle=orthogonalEdgeStyle;rounded=0;orthogonalLoop=1;jettySize=auto;html=1;entryX=1.004;entryY=0.172;entryDx=0;entryDy=0;entryPerimeter=0;strokeWidth=2;dashed=1;endSize=12;endArrow=block;endFill=0;" parent="1" source="8peqeRItGr1Bbq8-Sd6H-26" target="8peqeRItGr1Bbq8-Sd6H-16" edge="1">
          <mxGeometry relative="1" as="geometry" />
        </mxCell>
        <mxCell id="8peqeRItGr1Bbq8-Sd6H-69" style="edgeStyle=orthogonalEdgeStyle;rounded=0;orthogonalLoop=1;jettySize=auto;html=1;entryX=0.25;entryY=0;entryDx=0;entryDy=0;dashed=1;strokeWidth=2;endArrow=open;endFill=0;endSize=12;" parent="1" source="8peqeRItGr1Bbq8-Sd6H-38" target="8peqeRItGr1Bbq8-Sd6H-17" edge="1">
          <mxGeometry relative="1" as="geometry">
            <Array as="points">
              <mxPoint x="-145" y="670" />
              <mxPoint x="-400" y="670" />
            </Array>
          </mxGeometry>
        </mxCell>
        <mxCell id="8peqeRItGr1Bbq8-Sd6H-70" style="edgeStyle=orthogonalEdgeStyle;rounded=0;orthogonalLoop=1;jettySize=auto;html=1;entryX=0.25;entryY=0;entryDx=0;entryDy=0;dashed=1;strokeWidth=2;endArrow=open;endFill=0;endSize=12;" parent="1" source="8peqeRItGr1Bbq8-Sd6H-38" target="8peqeRItGr1Bbq8-Sd6H-19" edge="1">
          <mxGeometry relative="1" as="geometry">
            <Array as="points">
              <mxPoint x="-145" y="670" />
              <mxPoint x="13" y="670" />
            </Array>
          </mxGeometry>
        </mxCell>
        <mxCell id="8peqeRItGr1Bbq8-Sd6H-71" style="edgeStyle=orthogonalEdgeStyle;rounded=0;orthogonalLoop=1;jettySize=auto;html=1;entryX=0.25;entryY=0;entryDx=0;entryDy=0;dashed=1;strokeWidth=2;endArrow=open;endFill=0;endSize=12;" parent="1" source="8peqeRItGr1Bbq8-Sd6H-38" target="8peqeRItGr1Bbq8-Sd6H-39" edge="1">
          <mxGeometry relative="1" as="geometry">
            <Array as="points">
              <mxPoint x="-145" y="670" />
              <mxPoint x="413" y="670" />
            </Array>
          </mxGeometry>
        </mxCell>
        <mxCell id="8peqeRItGr1Bbq8-Sd6H-72" style="edgeStyle=orthogonalEdgeStyle;rounded=0;orthogonalLoop=1;jettySize=auto;html=1;entryX=0.25;entryY=0;entryDx=0;entryDy=0;dashed=1;strokeWidth=2;endArrow=open;endFill=0;endSize=12;" parent="1" source="8peqeRItGr1Bbq8-Sd6H-38" target="8peqeRItGr1Bbq8-Sd6H-41" edge="1">
          <mxGeometry relative="1" as="geometry">
            <Array as="points">
              <mxPoint x="-145" y="670" />
              <mxPoint x="823" y="670" />
            </Array>
          </mxGeometry>
        </mxCell>
        <mxCell id="8peqeRItGr1Bbq8-Sd6H-74" style="edgeStyle=orthogonalEdgeStyle;rounded=0;orthogonalLoop=1;jettySize=auto;html=1;entryX=0.5;entryY=0;entryDx=0;entryDy=0;strokeWidth=2;dashed=1;endArrow=open;endFill=0;endSize=12;" parent="1" source="8peqeRItGr1Bbq8-Sd6H-33" target="8peqeRItGr1Bbq8-Sd6H-41" edge="1">
          <mxGeometry relative="1" as="geometry">
            <Array as="points">
              <mxPoint x="855" y="670" />
              <mxPoint x="915" y="670" />
            </Array>
          </mxGeometry>
        </mxCell>
        <mxCell id="8peqeRItGr1Bbq8-Sd6H-75" style="edgeStyle=orthogonalEdgeStyle;rounded=0;orthogonalLoop=1;jettySize=auto;html=1;entryX=0.5;entryY=0;entryDx=0;entryDy=0;dashed=1;strokeWidth=2;endArrow=open;endFill=0;endSize=12;" parent="1" source="8peqeRItGr1Bbq8-Sd6H-33" target="8peqeRItGr1Bbq8-Sd6H-39" edge="1">
          <mxGeometry relative="1" as="geometry">
            <Array as="points">
              <mxPoint x="855" y="670" />
              <mxPoint x="505" y="670" />
            </Array>
          </mxGeometry>
        </mxCell>
        <mxCell id="8peqeRItGr1Bbq8-Sd6H-76" style="edgeStyle=orthogonalEdgeStyle;rounded=0;orthogonalLoop=1;jettySize=auto;html=1;entryX=0.577;entryY=0.038;entryDx=0;entryDy=0;entryPerimeter=0;dashed=1;strokeWidth=2;endArrow=open;endFill=0;endSize=12;" parent="1" source="8peqeRItGr1Bbq8-Sd6H-33" target="8peqeRItGr1Bbq8-Sd6H-19" edge="1">
          <mxGeometry relative="1" as="geometry">
            <Array as="points">
              <mxPoint x="855" y="670" />
              <mxPoint x="120" y="670" />
            </Array>
          </mxGeometry>
        </mxCell>
        <mxCell id="8peqeRItGr1Bbq8-Sd6H-77" style="edgeStyle=orthogonalEdgeStyle;rounded=0;orthogonalLoop=1;jettySize=auto;html=1;entryX=0.5;entryY=0;entryDx=0;entryDy=0;dashed=1;endArrow=open;endFill=0;endSize=12;strokeWidth=2;" parent="1" source="8peqeRItGr1Bbq8-Sd6H-33" target="8peqeRItGr1Bbq8-Sd6H-17" edge="1">
          <mxGeometry relative="1" as="geometry">
            <mxPoint x="-70" y="650" as="targetPoint" />
            <Array as="points">
              <mxPoint x="855" y="670" />
              <mxPoint x="-320" y="670" />
            </Array>
          </mxGeometry>
        </mxCell>
        <mxCell id="8peqeRItGr1Bbq8-Sd6H-78" style="edgeStyle=orthogonalEdgeStyle;rounded=0;orthogonalLoop=1;jettySize=auto;html=1;entryX=1.02;entryY=0.237;entryDx=0;entryDy=0;entryPerimeter=0;endArrow=open;endFill=0;dashed=1;strokeWidth=2;endSize=12;" parent="1" source="8peqeRItGr1Bbq8-Sd6H-43" target="8peqeRItGr1Bbq8-Sd6H-6" edge="1">
          <mxGeometry relative="1" as="geometry" />
        </mxCell>
        <mxCell id="pklQIT7AwHlRO6d9PA7P-1" value="IncorrectParameters" style="swimlane;fontStyle=0;childLayout=stackLayout;horizontal=1;startSize=26;fillColor=none;horizontalStack=0;resizeParent=1;resizeParentMax=0;resizeLast=0;collapsible=1;marginBottom=0;whiteSpace=wrap;html=1;" parent="1" vertex="1">
          <mxGeometry x="1370" y="-60" width="170" height="150" as="geometry" />
        </mxCell>
        <mxCell id="pklQIT7AwHlRO6d9PA7P-2" value="&lt;div&gt;+TopWidthIncorrect,&lt;/div&gt;&lt;div&gt;+TopDepthIncorrect,&lt;/div&gt;&lt;div&gt;+TopHeightIncorrect,&lt;/div&gt;&lt;div&gt;+LegWidthIncorrect,&lt;/div&gt;&lt;div&gt;+LegDepthIncorrect,&lt;span style=&quot;background-color: initial;&quot;&gt;&amp;nbsp; &amp;nbsp; &amp;nbsp; +TableHeightIncorrect,&lt;/span&gt;&lt;span style=&quot;background-color: initial;&quot;&gt;&amp;nbsp; +TopAndLegsAreaIncorrect,&lt;/span&gt;&lt;/div&gt;" style="text;strokeColor=none;fillColor=none;align=left;verticalAlign=top;spacingLeft=4;spacingRight=4;overflow=hidden;rotatable=0;points=[[0,0.5],[1,0.5]];portConstraint=eastwest;whiteSpace=wrap;html=1;" parent="pklQIT7AwHlRO6d9PA7P-1" vertex="1">
          <mxGeometry y="26" width="170" height="124" as="geometry" />
        </mxCell>
        <mxCell id="pklQIT7AwHlRO6d9PA7P-3" style="edgeStyle=orthogonalEdgeStyle;rounded=0;orthogonalLoop=1;jettySize=auto;html=1;entryX=0.02;entryY=0.14;entryDx=0;entryDy=0;entryPerimeter=0;dashed=1;strokeWidth=2;endArrow=open;endFill=0;endSize=12;" parent="1" source="8peqeRItGr1Bbq8-Sd6H-2" target="pklQIT7AwHlRO6d9PA7P-2" edge="1">
          <mxGeometry relative="1" as="geometry" />
        </mxCell>
        <mxCell id="pklQIT7AwHlRO6d9PA7P-4" value="&amp;lt;use&amp;gt;" style="text;html=1;align=center;verticalAlign=middle;whiteSpace=wrap;rounded=0;" parent="1" vertex="1">
          <mxGeometry x="600" y="150" width="60" height="30" as="geometry" />
        </mxCell>
        <mxCell id="pklQIT7AwHlRO6d9PA7P-5" value="&amp;lt;use&amp;gt;" style="text;html=1;align=center;verticalAlign=middle;whiteSpace=wrap;rounded=0;" parent="1" vertex="1">
          <mxGeometry x="-80" y="150" width="60" height="30" as="geometry" />
        </mxCell>
        <mxCell id="pklQIT7AwHlRO6d9PA7P-6" value="&amp;lt;use&amp;gt;" style="text;html=1;align=center;verticalAlign=middle;whiteSpace=wrap;rounded=0;" parent="1" vertex="1">
          <mxGeometry x="400" y="-20" width="60" height="30" as="geometry" />
        </mxCell>
        <mxCell id="pklQIT7AwHlRO6d9PA7P-7" value="&amp;lt;use&amp;gt;" style="text;html=1;align=center;verticalAlign=middle;whiteSpace=wrap;rounded=0;" parent="1" vertex="1">
          <mxGeometry x="220" y="-60" width="60" height="30" as="geometry" />
        </mxCell>
        <mxCell id="pklQIT7AwHlRO6d9PA7P-8" value="&amp;lt;use&amp;gt;" style="text;html=1;align=center;verticalAlign=middle;whiteSpace=wrap;rounded=0;" parent="1" vertex="1">
          <mxGeometry x="475" y="-330" width="60" height="30" as="geometry" />
        </mxCell>
        <mxCell id="pklQIT7AwHlRO6d9PA7P-9" value="&amp;lt;use&amp;gt;" style="text;html=1;align=center;verticalAlign=middle;whiteSpace=wrap;rounded=0;" parent="1" vertex="1">
          <mxGeometry x="475" y="-270" width="60" height="30" as="geometry" />
        </mxCell>
        <mxCell id="pklQIT7AwHlRO6d9PA7P-10" value="&amp;lt;use&amp;gt;" style="text;html=1;align=center;verticalAlign=middle;whiteSpace=wrap;rounded=0;" parent="1" vertex="1">
          <mxGeometry x="475" y="-180" width="60" height="30" as="geometry" />
        </mxCell>
        <mxCell id="pklQIT7AwHlRO6d9PA7P-11" value="&amp;lt;use&amp;gt;" style="text;html=1;align=center;verticalAlign=middle;whiteSpace=wrap;rounded=0;" parent="1" vertex="1">
          <mxGeometry x="940" y="-180" width="60" height="30" as="geometry" />
        </mxCell>
        <mxCell id="pklQIT7AwHlRO6d9PA7P-12" value="&amp;lt;use&amp;gt;" style="text;html=1;align=center;verticalAlign=middle;whiteSpace=wrap;rounded=0;" parent="1" vertex="1">
          <mxGeometry x="-330" y="700" width="60" height="30" as="geometry" />
        </mxCell>
        <mxCell id="pklQIT7AwHlRO6d9PA7P-13" value="&amp;lt;use&amp;gt;" style="text;html=1;align=center;verticalAlign=middle;whiteSpace=wrap;rounded=0;" parent="1" vertex="1">
          <mxGeometry x="10" y="700" width="60" height="30" as="geometry" />
        </mxCell>
        <mxCell id="pklQIT7AwHlRO6d9PA7P-14" value="&amp;lt;use&amp;gt;" style="text;html=1;align=center;verticalAlign=middle;whiteSpace=wrap;rounded=0;" parent="1" vertex="1">
          <mxGeometry x="120" y="700" width="60" height="30" as="geometry" />
        </mxCell>
        <mxCell id="pklQIT7AwHlRO6d9PA7P-15" value="&amp;lt;use&amp;gt;" style="text;html=1;align=center;verticalAlign=middle;whiteSpace=wrap;rounded=0;" parent="1" vertex="1">
          <mxGeometry x="400" y="700" width="60" height="30" as="geometry" />
        </mxCell>
        <mxCell id="pklQIT7AwHlRO6d9PA7P-16" value="&amp;lt;use&amp;gt;" style="text;html=1;align=center;verticalAlign=middle;whiteSpace=wrap;rounded=0;" parent="1" vertex="1">
          <mxGeometry x="500" y="700" width="60" height="30" as="geometry" />
        </mxCell>
        <mxCell id="pklQIT7AwHlRO6d9PA7P-17" value="&amp;lt;use&amp;gt;" style="text;html=1;align=center;verticalAlign=middle;whiteSpace=wrap;rounded=0;" parent="1" vertex="1">
          <mxGeometry x="825" y="700" width="60" height="30" as="geometry" />
        </mxCell>
        <mxCell id="pklQIT7AwHlRO6d9PA7P-18" value="&amp;lt;use&amp;gt;" style="text;html=1;align=center;verticalAlign=middle;whiteSpace=wrap;rounded=0;" parent="1" vertex="1">
          <mxGeometry x="920" y="700" width="60" height="30" as="geometry" />
        </mxCell>
        <mxCell id="pklQIT7AwHlRO6d9PA7P-19" value="&amp;lt;use&amp;gt;" style="text;html=1;align=center;verticalAlign=middle;whiteSpace=wrap;rounded=0;" parent="1" vertex="1">
          <mxGeometry x="-400" y="700" width="60" height="30" as="geometry" />
        </mxCell>
        <mxCell id="pklQIT7AwHlRO6d9PA7P-20" value="&amp;lt;use&amp;gt;" style="text;html=1;align=center;verticalAlign=middle;whiteSpace=wrap;rounded=0;" parent="1" vertex="1">
          <mxGeometry x="1270" y="-50" width="60" height="30" as="geometry" />
        </mxCell>
        <mxCell id="pklQIT7AwHlRO6d9PA7P-22" style="edgeStyle=orthogonalEdgeStyle;rounded=0;orthogonalLoop=1;jettySize=auto;html=1;entryX=1.025;entryY=0.349;entryDx=0;entryDy=0;entryPerimeter=0;strokeWidth=2;endArrow=none;endFill=0;endSize=12;startArrow=diamondThin;startFill=1;startSize=12;" parent="1" source="8peqeRItGr1Bbq8-Sd6H-7" target="8peqeRItGr1Bbq8-Sd6H-10" edge="1">
          <mxGeometry relative="1" as="geometry">
            <Array as="points">
              <mxPoint x="800" y="5" />
            </Array>
          </mxGeometry>
        </mxCell>
        <mxCell id="pklQIT7AwHlRO6d9PA7P-27" value="1" style="text;html=1;align=center;verticalAlign=middle;whiteSpace=wrap;rounded=0;" parent="1" vertex="1">
          <mxGeometry x="710" y="-30" width="50" height="30" as="geometry" />
        </mxCell>
        <mxCell id="pklQIT7AwHlRO6d9PA7P-28" value="1" style="text;html=1;align=center;verticalAlign=middle;whiteSpace=wrap;rounded=0;" parent="1" vertex="1">
          <mxGeometry x="791" width="50" height="30" as="geometry" />
        </mxCell>
        <mxCell id="pklQIT7AwHlRO6d9PA7P-29" value="1" style="text;html=1;align=center;verticalAlign=middle;whiteSpace=wrap;rounded=0;" parent="1" vertex="1">
          <mxGeometry x="670" y="90" width="50" height="30" as="geometry" />
        </mxCell>
        <mxCell id="pklQIT7AwHlRO6d9PA7P-30" value="1" style="text;html=1;align=center;verticalAlign=middle;whiteSpace=wrap;rounded=0;" parent="1" vertex="1">
          <mxGeometry x="470" y="383" width="50" height="30" as="geometry" />
        </mxCell>
        <mxCell id="pklQIT7AwHlRO6d9PA7P-31" value="1" style="text;html=1;align=center;verticalAlign=middle;whiteSpace=wrap;rounded=0;" parent="1" vertex="1">
          <mxGeometry x="791" y="-260" width="50" height="30" as="geometry" />
        </mxCell>
        <mxCell id="pklQIT7AwHlRO6d9PA7P-32" value="1" style="text;html=1;align=center;verticalAlign=middle;whiteSpace=wrap;rounded=0;" parent="1" vertex="1">
          <mxGeometry x="710" y="20" width="50" height="30" as="geometry" />
        </mxCell>
        <mxCell id="FSv4GVX_IqDxlKomD4Vc-5" value="&amp;lt;use&amp;gt;" style="text;html=1;align=center;verticalAlign=middle;whiteSpace=wrap;rounded=0;" parent="1" vertex="1">
          <mxGeometry x="1300" y="-360" width="60" height="30" as="geometry" />
        </mxCell>
        <mxCell id="FSv4GVX_IqDxlKomD4Vc-6" style="edgeStyle=orthogonalEdgeStyle;rounded=0;orthogonalLoop=1;jettySize=auto;html=1;entryX=0.467;entryY=-0.003;entryDx=0;entryDy=0;entryPerimeter=0;dashed=1;endArrow=open;endFill=0;strokeWidth=2;endSize=12;" parent="1" source="8peqeRItGr1Bbq8-Sd6H-13" target="8peqeRItGr1Bbq8-Sd6H-15" edge="1">
          <mxGeometry relative="1" as="geometry" />
        </mxCell>
        <mxCell id="FSv4GVX_IqDxlKomD4Vc-7" value="&amp;lt;use&amp;gt;" style="text;html=1;align=center;verticalAlign=middle;whiteSpace=wrap;rounded=0;" parent="1" vertex="1">
          <mxGeometry x="320" y="280" width="60" height="30" as="geometry" />
        </mxCell>
        <mxCell id="eoLZ1sWDRkLMDScInQ-_-1" style="edgeStyle=orthogonalEdgeStyle;rounded=0;orthogonalLoop=1;jettySize=auto;html=1;entryX=0;entryY=0.5;entryDx=0;entryDy=0;strokeWidth=2;endArrow=diamondThin;endFill=1;endSize=12;" parent="1" source="8peqeRItGr1Bbq8-Sd6H-6" target="8peqeRItGr1Bbq8-Sd6H-2" edge="1">
          <mxGeometry relative="1" as="geometry">
            <Array as="points">
              <mxPoint x="750" y="-272" />
              <mxPoint x="750" y="-17" />
            </Array>
          </mxGeometry>
        </mxCell>
        <mxCell id="eoLZ1sWDRkLMDScInQ-_-2" value="1" style="text;html=1;align=center;verticalAlign=middle;whiteSpace=wrap;rounded=0;" parent="1" vertex="1">
          <mxGeometry x="791" y="-50" width="60" height="30" as="geometry" />
        </mxCell>
        <mxCell id="eoLZ1sWDRkLMDScInQ-_-3" value="1..5" style="text;html=1;align=center;verticalAlign=middle;whiteSpace=wrap;rounded=0;" parent="1" vertex="1">
          <mxGeometry x="290" y="-300" width="60" height="30" as="geometry" />
        </mxCell>
        <mxCell id="w2sVenuoAS3nU-lj2Czt-1" value="Parameter" style="swimlane;fontStyle=0;childLayout=stackLayout;horizontal=1;startSize=26;fillColor=none;horizontalStack=0;resizeParent=1;resizeParentMax=0;resizeLast=0;collapsible=1;marginBottom=0;whiteSpace=wrap;html=1;" vertex="1" parent="1">
          <mxGeometry x="1160" y="-240" width="160" height="110" as="geometry" />
        </mxCell>
        <mxCell id="w2sVenuoAS3nU-lj2Czt-2" value="+Value&lt;div&gt;+MaxValue&lt;/div&gt;&lt;div&gt;+MinValue&lt;/div&gt;" style="text;strokeColor=none;fillColor=none;align=left;verticalAlign=top;spacingLeft=4;spacingRight=4;overflow=hidden;rotatable=0;points=[[0,0.5],[1,0.5]];portConstraint=eastwest;whiteSpace=wrap;html=1;" vertex="1" parent="w2sVenuoAS3nU-lj2Czt-1">
          <mxGeometry y="26" width="160" height="54" as="geometry" />
        </mxCell>
        <mxCell id="w2sVenuoAS3nU-lj2Czt-3" value="+Parameter()" style="html=1;whiteSpace=wrap;align=left;" vertex="1" parent="w2sVenuoAS3nU-lj2Czt-1">
          <mxGeometry y="80" width="160" height="30" as="geometry" />
        </mxCell>
        <mxCell id="w2sVenuoAS3nU-lj2Czt-5" style="edgeStyle=orthogonalEdgeStyle;rounded=0;orthogonalLoop=1;jettySize=auto;html=1;entryX=0.818;entryY=0;entryDx=0;entryDy=0;entryPerimeter=0;strokeWidth=2;endArrow=diamondThin;endFill=1;endSize=11;" edge="1" parent="1" source="w2sVenuoAS3nU-lj2Czt-3" target="8peqeRItGr1Bbq8-Sd6H-1">
          <mxGeometry relative="1" as="geometry" />
        </mxCell>
        <mxCell id="w2sVenuoAS3nU-lj2Czt-6" style="edgeStyle=orthogonalEdgeStyle;rounded=0;orthogonalLoop=1;jettySize=auto;html=1;entryX=0.5;entryY=0;entryDx=0;entryDy=0;strokeWidth=2;dashed=1;endArrow=open;endFill=0;endSize=10;" edge="1" parent="1" source="8peqeRItGr1Bbq8-Sd6H-43" target="w2sVenuoAS3nU-lj2Czt-1">
          <mxGeometry relative="1" as="geometry" />
        </mxCell>
        <mxCell id="w2sVenuoAS3nU-lj2Czt-7" value="&amp;lt;use&amp;gt;" style="text;html=1;align=center;verticalAlign=middle;whiteSpace=wrap;rounded=0;" vertex="1" parent="1">
          <mxGeometry x="1140" y="-330" width="60" height="30" as="geometry" />
        </mxCell>
        <mxCell id="w2sVenuoAS3nU-lj2Czt-9" value="&amp;lt;use&amp;gt;" style="text;html=1;align=center;verticalAlign=middle;whiteSpace=wrap;rounded=0;" vertex="1" parent="1">
          <mxGeometry x="860" y="-220" width="60" height="30" as="geometry" />
        </mxCell>
      </root>
    </mxGraphModel>
  </diagram>
</mxfile>
